# xmcd
#
# Track frame offsets:
#	150
#	10722
#	22390
#	34250
#	43932
#	55290
#	65885
#	75287
#	89102
#	101825
#	121012
#	131222
#	144567
#	154422
#	167355
#	179142
#	191645
#	204200
#	215112
#	226880
#	242325
#	253452
#	266277
#	279582
#	289615
#
# Disc length: 4020 seconds
#
# Revision: 4
# Processed by: cddbd v1.5.2PL0 Copyright (c) Steve Scherf et al.
# Submitted via: audiograbber 1.83.01
#
DISCID=7c0fb219
DTITLE=Various Artist - Jukebox top 100 vol.2 [CD2)
DYEAR=1995
DGENRE=Oldies
TTITLE0=The Everly Brothers - All I have to do is dream
TTITLE1=Chubby Checker - Let's twist again
TTITLE2=Chris Andrews - Pretty Belinda
TTITLE3=Gerry and The Pacemakers - I like it
TTITLE4=Johnny Tillotson - Poetry in motion
TTITLE5=The Rivingstons - Papa-doo-mow-mow
TTITLE6=The Ventures - Walk don't run
TTITLE7=The Fortunes - Freedom come, freedom go
TTITLE8=Jay and The Americans - Come a little bit closer
TTITLE9=The Budys - Give up your guns
TTITLE10=Cannibal and the Headhunters - Land of 1000 dances
TTITLE11=Gene Pitney - 24 hours from Tulsa
TTITLE12=The Chordettes - Lollipop
TTITLE13=Tommy Roe - Dizzy
TTITLE14=Doris Day - Singing in the rain
TTITLE15=Tina Turner - Stand by your man
TTITLE16=Neil Christian - Thats nice
TTITLE17=Bobby Vee - Rubber ball
TTITLE18=Sam and Dave - Hold on I'm coming
TTITLE19=Demis Roussos - Rain and tears
TTITLE20=Pat Boone - Moody river
TTITLE21=Kenny Rogers - Ruby don't take your love to town
TTITLE22=Jimmy Dean - Big bad John
TTITLE23=Little Richard - Baby face
TTITLE24=BJ Thomas - Hooked on a feeling
EXTD=
EXTT0=
EXTT1=
EXTT2=
EXTT3=
EXTT4=
EXTT5=
EXTT6=
EXTT7=
EXTT8=
EXTT9=
EXTT10=
EXTT11=
EXTT12=
EXTT13=
EXTT14=
EXTT15=
EXTT16=
EXTT17=
EXTT18=
EXTT19=
EXTT20=
EXTT21=
EXTT22=
EXTT23=
EXTT24=
PLAYORDER=
